# xmcd CD database file
#
# Track frame offsets:
#	150
#	10870
#	22533
#	36315
#	47960
#	59008
#	72288
#	83123
#	94168
#	105540
#
# Disc length: 1561 seconds
#
# Revision: 0
# Processed by: cddbd v1.4PL0 Copyright (c) Steve Scherf et al.
# Submitted via: CDex 1.40Release
#
DISCID=7a06170a
DTITLE=Johnny Bush - Texas Legend Series Vol 1
DYEAR=1993
DGENRE=Country
TTITLE0=There Stands The Glass
TTITLE1=Another Bridge To Burn
TTITLE2=Pour The Wine
TTITLE3=You Can't Take It With You
TTITLE4=Whiskey River
TTITLE5=Woman (Sensuous Woman)
TTITLE6=Right Back In Your Arms Again
TTITLE7=This Has Got To Last
TTITLE8=It's The Last Time I'll Ever Cheat On You
TTITLE9=The Lips Don't Know How To Say Goodbye
EXTD=YEAR: 1993 ID3G: 2
EXTT0=
EXTT1=
EXTT2=
EXTT3=
EXTT4=
EXTT5=
EXTT6=
EXTT7=
EXTT8=
EXTT9=
PLAYORDER=
